<svg viewBox="0 0 100 100" xmlns="http://www.w3.org/2000/svg">
  <circle cx="50" cy="50" r="45" fill="#ffcc33" />
  <path d="M 50 75 C 30 75 20 50 35 30 C 45 20 55 20 65 30 C 80 50 70 75 50 75 Z" fill="#000" />
  <circle cx="55" cy="35" r="10" fill="#fff" />
  <circle cx="45" cy="35" r="10" fill="#fff" />
  <circle cx="55" cy="35" r="5" fill="#000" />
  <circle cx="45" cy="35" r="5" fill="#000" />
  <path d="M 50 60 C 45 60 42 55 42 50 C 42 45 45 40 50 40 C 55 40 58 45 58 50 C 58 55 55 60 50 60 Z" fill="#fff" />
  <path d="M 50 60 C 48 60 46 58 46 56 C 46 54 48 52 50 52 C 52 52 54 54 54 56 C 54 58 52 60 50 60 Z" fill="#000" />
</svg>